<?xml version="1.0" ?><!DOCTYPE svg  PUBLIC '-//W3C//DTD SVG 1.1//EN'  'http://www.w3.org/Graphics/SVG/1.1/DTD/svg11.dtd'><svg height="512px" style="enable-background:new 0 0 512 512;" version="1.1" viewBox="0 0 512 512" width="512px" xml:space="preserve" xmlns="http://www.w3.org/2000/svg" xmlns:xlink="http://www.w3.org/1999/xlink"><g id="isntagram__x2C__social__x2C__media_x2C__icon_x2C_"><g><path d="M434.478,16H77.519C43.718,16,16,43.72,16,77.522v356.955    C16,468.281,43.718,496,77.519,496h356.959C468.281,496,496,468.281,496,434.478V77.522C496,43.72,468.281,16,434.478,16z     M416,223.124v24.097v107.05C416,388.394,388.384,416,354.253,416h-196.55C123.555,416,96,388.394,96,354.271V247.194v-24.07    v-65.423C96,123.568,123.555,96,157.703,96h196.55C388.384,96,416,123.568,416,157.701V223.124z" style="fill-rule:evenodd;clip-rule:evenodd;fill:#1A1A1A;"/><path d="M255.989,312.355c31.068,0,56.399-25.302,56.399-56.376    c0-9.967-2.703-19.34-7.292-27.498c-1.052-1.832-2.154-3.656-3.398-5.357c-10.266-14.203-26.897-23.506-45.709-23.506    c-18.823,0-35.462,9.303-45.721,23.506c-1.233,1.701-2.343,3.525-3.388,5.357c-4.6,8.151-7.291,17.518-7.291,27.498    C199.59,287.054,224.891,312.355,255.989,312.355z" style="fill-rule:evenodd;clip-rule:evenodd;fill:#1A1A1A;"/><polygon points="379,187.002 379,139.778 379,132.693     371.973,132.739 324.76,132.882 324.937,187.182   " style="fill-rule:evenodd;clip-rule:evenodd;fill:#1A1A1A;"/><path d="M340.218,232.076c2.162,7.6,3.366,15.609,3.366,23.873    c0,48.305-39.296,87.609-87.595,87.609c-48.3,0-87.604-39.281-87.604-87.586c0-8.264,1.197-16.3,3.353-23.892    c0.878-3.076,1.89-6.08,3.087-9.08H127v16.716v114.555C127,371.207,140.774,385,157.703,385h196.55    C371.186,385,385,371.207,385,354.271V239.737V223h-47.884C338.324,226,339.337,229.007,340.218,232.076z" style="fill-rule:evenodd;clip-rule:evenodd;fill:#1A1A1A;"/></g></g><g id="Layer_1"/></svg>