<?xml version="1.0" encoding="utf-8"?>
<!-- Generator: Adobe Illustrator 24.1.2, SVG Export Plug-In . SVG Version: 6.00 Build 0)  -->
<svg version="1.1" id="Layer_1" xmlns="http://www.w3.org/2000/svg" xmlns:xlink="http://www.w3.org/1999/xlink" x="0px" y="0px"
	 viewBox="0 0 512 512" style="enable-background:new 0 0 512 512;" xml:space="preserve">
<style type="text/css">
	.st0{fill-rule:evenodd;clip-rule:evenodd;fill:#1A1A1A;}
</style>
<g>
	<path class="st0" d="M305.1,116.8c-16.8-0.1-30.7,13.7-30.4,30.1c0.3,16.3,13.8,29.8,30,30c16.9,0.2,29.9-13,29.9-30.3
		C334.5,129.7,321.9,116.9,305.1,116.8z"/>
	<path class="st0" d="M146.7,196.3c-16.9-0.1-30,12.5-30.1,29c-0.2,17.1,12.8,30.8,29.4,31c16.2,0.3,30.7-14.2,30.6-30.3
		C176.3,209.5,163.2,196.3,146.7,196.3z"/>
	<path class="st0" d="M206.5,116.8c-16.4-0.2-30.1,12.8-30.6,29c-0.5,16.4,13.2,30.8,29.7,31.1c16.1,0.3,30.1-13.2,30.3-29.3
		C236.1,130.2,223.5,117,206.5,116.8z"/>
	<path class="st0" d="M364.8,196.3c-16.8,0-30,12.8-30.2,29.2c-0.2,16.7,13.4,30.7,29.8,30.8c16,0.1,30.1-13.7,30.3-29.7
		C395.1,209.7,381.8,196.3,364.8,196.3z"/>
	<path class="st0" d="M434.5,16h-357C43.7,16,16,43.7,16,77.5v357c0,33.8,27.7,61.5,61.5,61.5h357c33.8,0,61.5-27.7,61.5-61.5v-357
		C496,43.7,468.3,16,434.5,16z M434.9,244c-0.5,1.8-1.1,3.5-1.3,5.3c-5.4,39.9-33.7,73.5-72.9,81.9c-18.6,4-38.4,3-57.6,3.6
		c-13.3,0.5-24,5.1-29.7,17.4c-5.6,12.2-3.5,23.5,5.4,33.9c6.4,7.5,8,16.3,5.5,26.1c-3.5,13.5-13.5,19.4-25.9,22.7
		c-2.1,0-4.2,0-6.4,0c-10.2-1.3-20.6-1.9-30.7-3.9c-80.8-15.6-138-84.3-143.5-160.2c-4.5-62.2,17-113.7,64.7-153
		c51-42,109.8-50.2,172.1-31.4c51.6,15.6,90.1,47.6,110.1,98.6c5.5,14,7,29.6,10.3,44.5C434.9,234.5,434.9,239.2,434.9,244z"/>
</g>
</svg>
